<mxfile host="65bd71144e">
    <diagram id="C5RBs43oDa-KdzZeNtuy" name="Page-1">
        <mxGraphModel dx="801" dy="287" grid="1" gridSize="10" guides="1" tooltips="1" connect="1" arrows="1" fold="1" page="1" pageScale="1" pageWidth="827" pageHeight="1169" math="0" shadow="0">
            <root>
                <mxCell id="WIyWlLk6GJQsqaUBKTNV-0"/>
                <mxCell id="WIyWlLk6GJQsqaUBKTNV-1" parent="WIyWlLk6GJQsqaUBKTNV-0"/>
                <mxCell id="6SkO4zOz3KpEY4JWlvU3-2" value="" style="edgeStyle=orthogonalEdgeStyle;rounded=0;orthogonalLoop=1;jettySize=auto;html=1;" parent="WIyWlLk6GJQsqaUBKTNV-1" source="6SkO4zOz3KpEY4JWlvU3-0" target="6SkO4zOz3KpEY4JWlvU3-1" edge="1">
                    <mxGeometry relative="1" as="geometry"/>
                </mxCell>
                <mxCell id="6SkO4zOz3KpEY4JWlvU3-0" value="SENSORES" style="ellipse;whiteSpace=wrap;html=1;" parent="WIyWlLk6GJQsqaUBKTNV-1" vertex="1">
                    <mxGeometry x="354" y="40" width="120" height="80" as="geometry"/>
                </mxCell>
                <mxCell id="6SkO4zOz3KpEY4JWlvU3-7" value="" style="edgeStyle=orthogonalEdgeStyle;rounded=0;orthogonalLoop=1;jettySize=auto;html=1;" parent="WIyWlLk6GJQsqaUBKTNV-1" source="6SkO4zOz3KpEY4JWlvU3-1" target="6SkO4zOz3KpEY4JWlvU3-6" edge="1">
                    <mxGeometry relative="1" as="geometry"/>
                </mxCell>
                <mxCell id="6SkO4zOz3KpEY4JWlvU3-1" value="MICROCONTROLADOR" style="ellipse;whiteSpace=wrap;html=1;" parent="WIyWlLk6GJQsqaUBKTNV-1" vertex="1">
                    <mxGeometry x="336" y="160" width="156" height="100" as="geometry"/>
                </mxCell>
                <mxCell id="0" style="edgeStyle=none;html=1;entryX=0.5;entryY=0;entryDx=0;entryDy=0;" edge="1" parent="WIyWlLk6GJQsqaUBKTNV-1" source="6SkO4zOz3KpEY4JWlvU3-6" target="6SkO4zOz3KpEY4JWlvU3-14">
                    <mxGeometry relative="1" as="geometry"/>
                </mxCell>
                <mxCell id="6SkO4zOz3KpEY4JWlvU3-6" value="BROKER MQTT" style="ellipse;whiteSpace=wrap;html=1;" parent="WIyWlLk6GJQsqaUBKTNV-1" vertex="1">
                    <mxGeometry x="359" y="310" width="110" height="80" as="geometry"/>
                </mxCell>
                <mxCell id="6SkO4zOz3KpEY4JWlvU3-18" value="" style="edgeStyle=orthogonalEdgeStyle;rounded=0;orthogonalLoop=1;jettySize=auto;html=1;" parent="WIyWlLk6GJQsqaUBKTNV-1" source="6SkO4zOz3KpEY4JWlvU3-14" target="6SkO4zOz3KpEY4JWlvU3-17" edge="1">
                    <mxGeometry relative="1" as="geometry"/>
                </mxCell>
                <mxCell id="6SkO4zOz3KpEY4JWlvU3-14" value="BANCO DE DADOS" style="ellipse;whiteSpace=wrap;html=1;" parent="WIyWlLk6GJQsqaUBKTNV-1" vertex="1">
                    <mxGeometry x="359" y="440" width="110" height="80" as="geometry"/>
                </mxCell>
                <mxCell id="6SkO4zOz3KpEY4JWlvU3-17" value="DASHBOARD" style="ellipse;whiteSpace=wrap;html=1;" parent="WIyWlLk6GJQsqaUBKTNV-1" vertex="1">
                    <mxGeometry x="359" y="570" width="110" height="80" as="geometry"/>
                </mxCell>
            </root>
        </mxGraphModel>
    </diagram>
</mxfile>